<svg version="1.1" xmlns="http://www.w3.org/2000/svg" xmlns:xlink="http://www.w3.org/1999/xlink" width="1101" height="2522"><desc>title%20Saga%0A%0Aactor%20Usu%C3%A1rio%0Aparticipant%20Reservation%0Aparticipant%20Flight%0Aparticipant%20Hotel%0Aparticipant%20RabbitMQ%0Adatabase%20MongoDB%0A%0AUsu%C3%A1rio-%3EReservation%3APOST%20%2Freservations%0AUsu%C3%A1rio%3C%3C%23red--Reservation%3AErros%20de%20Valida%C3%A7%C3%A3o%0AReservation-%230080ff%3EMongoDB%3ANova%20Reserva%20(Pending)%0AReservation-%230080ff%3E(3)RabbitMQ%3APendingReservationCreatedEvent%0ARabbitMQ--%230080ff%3EFlight%3APendingReservationCreatedEvent%0A%0Agroup%20%23008000%20V%C3%B4o%20dispon%C3%ADvel%20%23white%0AFlight-%23green%3E(3)MongoDB%3ANova%20Reserva%20de%20V%C3%B4o%0AFlight-%23green%3E(3)RabbitMQ%3ABookedFlightEvent%0Aend%0A%0Agroup%20%23c83200%20Sem%20v%C3%B4os%20%23white%0AFlight-%23red%3E(3)RabbitMQ%3ADeniedFlightBookingEvent%0ARabbitMQ--%23red%3EReservation%3ADeniedFlightBookingEvent%0Aend%0A%0ARabbitMQ--%23green%3EHotel%3ABookedFlightEvent%0A%0Agroup%20%23008000%20Hotel%20dispon%C3%ADvel%20%23white%0AHotel-%23green%3E(3)MongoDB%3ANova%20Reserva%20de%20Hotel%0AHotel-%23green%3E(3)RabbitMQ%3ABookedHotelEvent%0Aend%0A%0Agroup%20%23c83200%20Sem%20hot%C3%A9is%20%23white%0AHotel-%23red%3E(3)RabbitMQ%3ADeniedHotelBookingEvent%0ARabbitMQ--%23red%3EFlight%3ADeniedHotelBookingEvent%0Aend%0A%0Agroup%20%23008000%20Hotel%20reservado%20%23white%0ARabbitMQ--%23green%3EReservation%3ABookedHotelEvent%0AReservation-%23green%3EMongoDB%3AAtualiza%20Reserva%20(Finished)%0AReservation--%23green%3E%3EUsu%C3%A1rio%3AAvisa%0Aend%0A%0Agroup%20%23c83200%20Erro%20no%20v%C3%B4o%20ou%20no%20hotel%20%23white%0AReservation-%23red%3EMongoDB%3AAtualiza%20Reserva%20(Denied)%0AReservation--%23red%3E%3EUsu%C3%A1rio%3AAvisa%0Aend</desc><defs/><g><g/><g/><g/><g/><g/><g/><g/><g/><g/><g/><g/><g/><g/><g/><g/><g/><g/><g/><g/><g><rect fill="white" stroke="none" x="0" y="0" width="1101" height="2522"/></g><g><text fill="black" stroke="none" font-family="sans-serif" font-size="16.5pt" font-style="normal" font-weight="normal" text-decoration="normal" x="523.23448059628" y="35.81179184999999" text-anchor="start" dominant-baseline="alphabetic" xml:space="preserve">Saga</text></g><g><rect fill="rgb(204,230,204)" stroke="none" x="366.4388524369291" y="622.172283036969" width="711.0555823815097" height="292.0180635786678"/><rect fill="rgb(244,214,204)" stroke="none" x="226.73993258157557" y="950.0021384656368" width="717.4603893530099" height="250.9152280175349"/><rect fill="rgb(204,230,204)" stroke="none" x="521.1965593553535" y="1303.5778364531716" width="556.2978754630852" height="304.1557175841315"/><rect fill="rgb(244,214,204)" stroke="none" x="366.4388524369291" y="1643.545345887303" width="577.7614694976563" height="260.87191863163935"/><rect fill="rgb(204,230,204)" stroke="none" x="23.874527900000004" y="1940.2290563689423" width="1053.6199069184388" height="265.0072596900002"/><rect fill="rgb(244,214,204)" stroke="none" x="23.874527900000004" y="2241.0481079089427" width="1053.6199069184388" height="198.15858157000002"/></g><g><path fill="none" stroke="black" paint-order="fill stroke markers" d=" M 107.43537555 188.37002513099998 L 107.43537555 2522.767537128943" stroke-miterlimit="10" stroke-width="1.9895439916666666" stroke-dasharray="18.36502146153846,7.9581759666666665"/><path fill="none" stroke="black" paint-order="fill stroke markers" d=" M 310.3007802315756 188.37002513099998 L 310.3007802315756 2522.767537128943" stroke-miterlimit="10" stroke-width="1.9895439916666666" stroke-dasharray="18.36502146153846,7.9581759666666665"/><path fill="none" stroke="black" paint-order="fill stroke markers" d=" M 449.9997000869291 188.37002513099998 L 449.9997000869291 2522.767537128943" stroke-miterlimit="10" stroke-width="1.9895439916666666" stroke-dasharray="18.36502146153846,7.9581759666666665"/><path fill="none" stroke="black" paint-order="fill stroke markers" d=" M 604.7574070053536 188.37002513099998 L 604.7574070053536 2522.767537128943" stroke-miterlimit="10" stroke-width="1.9895439916666666" stroke-dasharray="18.36502146153846,7.9581759666666665"/><path fill="none" stroke="black" paint-order="fill stroke markers" d=" M 860.6394742845854 188.37002513099998 L 860.6394742845854 2522.767537128943" stroke-miterlimit="10" stroke-width="1.9895439916666666" stroke-dasharray="18.36502146153846,7.9581759666666665"/><path fill="none" stroke="black" paint-order="fill stroke markers" d=" M 993.9335871684389 188.37002513099998 L 993.9335871684389 2522.767537128943" stroke-miterlimit="10" stroke-width="1.9895439916666666" stroke-dasharray="18.36502146153846,7.9581759666666665"/></g><g><g><path fill="white" stroke="black" paint-order="fill stroke markers" d=" M 121.043856453 87.38077211399998 A 13.608480902999998 13.608480902999998 0 1 1 121.04384964876012 87.36716363536506 M 107.43537555 100.98925301699998 L 107.43537555 130.11617705499998 M 90.245715462 111.49404529299997 L 124.625035638 111.49404529299997 M 107.43537555 130.11617705499998 L 90.245715462 157.33313886099998 M 107.43537555 130.11617705499998 L 124.625035638 157.33313886099998" stroke-miterlimit="10" stroke-width="4.058669743" stroke-dasharray=""/></g><g><g/><text fill="black" stroke="none" font-family="sans-serif" font-size="11pt" font-style="normal" font-weight="normal" text-decoration="normal" x="79.55204234382325" y="181.20766676099998" text-anchor="start" dominant-baseline="alphabetic" xml:space="preserve">Usuário</text></g><path fill="none" stroke="none"/><g><path fill="white" stroke="black" paint-order="fill stroke markers" d=" M 240.86358463536854 123.90879980099997 L 379.73797582778263 123.90879980099997 L 379.73797582778263 188.37002513099998 L 240.86358463536854 188.37002513099998 L 240.86358463536854 123.90879980099997 Z" stroke-miterlimit="10" stroke-width="3.819924464" stroke-dasharray=""/></g><g><g/><text fill="black" stroke="none" font-family="sans-serif" font-size="11pt" font-style="normal" font-weight="normal" text-decoration="normal" x="266.76744740686854" y="164.495497231" text-anchor="start" dominant-baseline="alphabetic" xml:space="preserve">Reservation</text></g><path fill="none" stroke="none"/><g><path fill="white" stroke="black" paint-order="fill stroke markers" d=" M 403.6125037277826 123.90879980099997 L 496.3868964460756 123.90879980099997 L 496.3868964460756 188.37002513099998 L 403.6125037277826 188.37002513099998 L 403.6125037277826 123.90879980099997 Z" stroke-miterlimit="10" stroke-width="3.819924464" stroke-dasharray=""/></g><g><g/><text fill="black" stroke="none" font-family="sans-serif" font-size="11pt" font-style="normal" font-weight="normal" text-decoration="normal" x="429.51636649928264" y="164.495497231" text-anchor="start" dominant-baseline="alphabetic" xml:space="preserve">Flight</text></g><path fill="none" stroke="none"/><g><path fill="white" stroke="black" paint-order="fill stroke markers" d=" M 559.4118766770908 123.90879980099997 L 650.1029373336162 123.90879980099997 L 650.1029373336162 188.37002513099998 L 559.4118766770908 188.37002513099998 L 559.4118766770908 123.90879980099997 Z" stroke-miterlimit="10" stroke-width="3.819924464" stroke-dasharray=""/></g><g><g/><text fill="black" stroke="none" font-family="sans-serif" font-size="11pt" font-style="normal" font-weight="normal" text-decoration="normal" x="585.3157394485909" y="164.495497231" text-anchor="start" dominant-baseline="alphabetic" xml:space="preserve">Hotel</text></g><path fill="none" stroke="none"/><g><path fill="white" stroke="black" paint-order="fill stroke markers" d=" M 798.9689451007318 123.90879980099997 L 922.3100034684389 123.90879980099997 L 922.3100034684389 188.37002513099998 L 798.9689451007318 188.37002513099998 L 798.9689451007318 123.90879980099997 Z" stroke-miterlimit="10" stroke-width="3.819924464" stroke-dasharray=""/></g><g><g/><text fill="black" stroke="none" font-family="sans-serif" font-size="11pt" font-style="normal" font-weight="normal" text-decoration="normal" x="824.8728078722319" y="164.495497231" text-anchor="start" dominant-baseline="alphabetic" xml:space="preserve">RabbitMQ</text></g><g><path fill="white" stroke="black" paint-order="fill stroke markers" d=" M 959.0767764344389 141.57595044699997 L 959.0767764344389 91.43944185699998 L 1028.7903979024388 91.43944185699998 L 1028.7903979024388 141.57595044699997" stroke-miterlimit="10" stroke-width="4.058669743" stroke-dasharray=""/><path fill="white" stroke="black" paint-order="fill stroke markers" d=" M 1028.7903979024388 89.69660132029998 L 1028.7886550764258 89.85417057825504 L 1028.7834267726678 90.01172407941561 L 1028.7747135139907 90.16924606856287 L 1028.7625161717133 90.32672079362918 L 1028.7468359655595 90.48413250727326 L 1028.727674463537 90.6414654684549 L 1028.7050335817798 90.79870394400912 L 1028.6789155843576 90.95583221021938 L 1028.6493230830479 91.11283455439 L 1028.6162590370766 91.26969527641741 L 1028.5797267528205 91.42639869036012 L 1028.5397298834778 91.5829291260073 L 1028.4962724287018 91.73927093044585 L 1028.449358734202 91.89540846962561 L 1028.3989934913086 92.05132612992277 L 1028.3451817365042 92.20700831970123 L 1028.287928850919 92.36243947087175 L 1028.2272405597942 92.51760404044873 L 1028.163122931908 92.67248651210454 L 1028.09558237897 92.82707139772106 L 1028.0246256549794 92.98134323893854 L 1027.9502598555491 93.13528660870143 L 1027.8724924171972 93.28888611280107 L 1027.7913311166028 93.44212639141499 L 1027.7067840698285 93.59499212064307 L 1027.6188597315079 93.74746801403977 L 1027.5275668940021 93.89953882414281 L 1027.4329146865189 94.05118934399789 L 1027.3349125741995 94.20240440867941 L 1027.2335703571741 94.35316889680692 L 1027.1288981695798 94.50346773205725 L 1027.0209064785479 94.6532858846721 L 1026.9096060831575 94.80260837296107 L 1026.7950081133558 94.95142026479976 L 1026.677124028844 95.09970667912302 L 1026.5559656179323 95.24745278741295 L 1026.431544996361 95.39464381518188 L 1026.3038746060884 95.54126504344967 L 1026.172967214047 95.68730181021569 L 1026.0388359108674 95.83273951192493 L 1025.9014941095677 95.97756360492845 L 1025.7609555442136 96.12175960693763 L 1025.6172342685447 96.26531309847242 L 1025.4703446545689 96.4082097243033 L 1025.3203013911248 96.55043519488677 L 1025.1671194824141 96.6919752877943 L 1025.0108142464999 96.83281584913453 L 1024.8514013137753 96.9729427949687 L 1024.688896625401 97.112342112719 L 1024.5233164317103 97.25099986256984 L 1024.3546772905847 97.38890217886174 L 1024.1829960657979 97.52603527147804 L 1024.0082899253289 97.6623854272237 L 1023.8305763396464 97.79793901119682 L 1023.6498730799608 97.93268246815192 L 1023.4661982164477 98.06660232385563 L 1023.2795701164401 98.19968518643397 L 1023.0900074425927 98.33191774771156 L 1022.8975291510147 98.46328678454249 L 1022.7021544893751 98.59377916013253 L 1022.503902994977 98.72338182535289 L 1022.3027944928049 98.85208182004503 L 1022.0988490935412 98.97986627431675 L 1021.8920871915559 99.10672240982908 L 1021.682529462867 99.23263754107421 L 1021.4701968630728 99.35759907664392 L 1021.2551106252562 99.48159452048881 L 1021.0372922578617 99.60461147316782 L 1020.8167635425448 99.72663763308819 L 1020.5935465319928 99.8476607977356 L 1020.3676635477211 99.96766886489446 L 1020.1391371778399 100.08664983385808 L 1019.9079902747956 100.20459180662866 L 1019.6742459530859 100.32148298910724 L 1019.4379275869481 100.43731169227298 L 1019.1990588080222 100.5520663333521 L 1018.9576635029867 100.66573543697609 L 1018.7137658111711 100.77830763632933 L 1018.4673901221413 100.8897716742857 L 1018.218561073261 101.00011640453428 L 1017.9673035472275 101.109330792694 L 1017.7136426695841 101.21740391741704 L 1017.4576038062074 101.32432497148102 L 1017.1992125607701 101.43008326286962 L 1016.9384947721816 101.53466821584183 L 1016.6754765120033 101.6380693719895 L 1016.4101840818423 101.7402763912832 L 1016.1426440107203 101.84127905310618 L 1015.8728830524216 101.94106725727639 L 1015.6009281828171 102.0396310250566 L 1015.3268065971673 102.13696050015214 L 1015.0505457074023 102.23304594969665 L 1014.7721731393807 102.3278777652252 L 1014.4917167301275 102.4214464636353 L 1014.2092045250498 102.51374268813507 L 1013.9246647751328 102.60475720917896 L 1013.6381259341142 102.69448092539074 L 1013.3496166556396 102.78290486447352 L 1013.059165790396 102.87002018410712 L 1012.7668023832284 102.95581817283214 L 1012.4725556702334 103.04029025092122 L 1012.1764550758375 103.12342797123694 L 1011.878530209853 103.20522302007656 L 1011.5788108645186 103.28566721800334 L 1011.2773270115188 103.36475252066454 L 1010.9741087989878 103.44247101959579 L 1010.6691865484942 103.51881494301196 L 1010.3625907520087 103.59377665658432 L 1010.0543520688558 103.66734866420401 L 1009.7445013226467 103.73952360873156 L 1009.4330694981979 103.81029427273266 L 1009.1200877384323 103.87965357919988 L 1008.8055873412651 103.94759459226039 L 1008.4895997564739 104.0141105178695 L 1008.172156582554 104.07919470449005 L 1007.853289563558 104.14284064375765 L 1007.5330305859221 104.2050419711314 L 1007.2114116752774 104.26579246653039 L 1006.8884649932469 104.32508605495569 L 1006.5642228342294 104.38291680709791 L 1006.2387176221711 104.43927893993 L 1005.9119819073214 104.49416681728565 L 1005.58404836298 104.54757495042287 L 1005.2549497822276 104.59949799857284 L 1004.9247190746485 104.64993076947403 L 1004.5933892630379 104.69886821989135 L 1004.260993480101 104.74630545612058 L 1003.927564965139 104.7922377344776 L 1003.5931370607257 104.83666046177285 L 1003.2577432093727 104.87956919577064 L 1002.9214169501859 104.9209596456333 L 1002.5841919155106 104.96082767235036 L 1002.2461018275694 104.99916928915236 L 1001.9071804950894 105.03598066190956 L 1001.5674618099214 105.07125810951538 L 1001.2269797436506 105.10499810425446 L 1000.8857683442003 105.13719727215542 L 1000.5438617324259 105.16785239332833 L 1000.2012940987036 105.19696040228659 L 999.8580996995113 105.22451838825357 L 999.5143128540029 105.25052359545366 L 999.1699679405767 105.27497342338778 L 998.8250993934369 105.29786542709353 L 998.4797416991507 105.3191973173896 L 998.1339293932 105.33896696110476 L 997.787697056527 105.3571723812911 L 997.441079312077 105.37381175742176 L 997.0941108213356 105.38888342557301 L 996.7468262808626 105.40238587859061 L 996.3992604188227 105.41431776624047 L 996.0514479915125 105.42467789534379 L 995.7034237798849 105.43346522989631 L 995.355222586071 105.44067889117187 L 995.0068792299 105.44631815781035 L 994.6584285454173 105.45038246588982 L 994.3099053774009 105.45287140898283 L 993.9613445778773 105.45378473819716 L 993.6127810026358 105.45312236220063 L 993.2642495077436 105.45088434723031 L 992.9157849460596 105.44707091708582 L 992.5674221637497 105.44168245310699 L 992.2191959968018 105.43471949413575 L 991.8711412675425 105.42618273646218 L 991.5232927811545 105.41607303375493 L 991.1756853221966 105.40439139697585 L 990.8283536511252 105.39113899427888 L 990.4813325008178 105.37631715089326 L 990.1346565731003 105.35992734899096 L 989.7883605352765 105.34197122753852 L 989.4424790166618 105.32245058213311 L 989.0970466051197 105.30136736482304 L 988.7520978436033 105.27872368391243 L 988.4076672267016 105.25452180375052 L 988.0637891971892 105.22876414450515 L 987.7204981425824 105.20145328192079 L 987.3778283917006 105.17259194706094 L 987.0358142112335 105.14218302603503 L 986.6944898023139 105.11022955970981 L 986.3538892970984 105.0767347434053 L 986.0140467553535 105.04170192657521 L 985.6749961610504 105.00513461247205 L 985.3367714189659 104.96703645779674 L 984.9994063512925 104.92741127233299 L 984.6629346942555 104.88626301856634 L 984.3273900947404 104.84359581128787 L 983.9928061069276 104.79941391718275 L 983.659216188937 104.75372175440359 L 983.3266536994823 104.70652389212856 L 982.9951518945355 104.65782505010459 L 982.6647439240008 104.60763009817528 L 982.3354628283998 104.555944055794 L 982.0073415355678 104.5027720915219 L 981.6804128573606 104.44811952251113 L 981.3547094863735 104.39199181397304 L 981.0302639926722 104.33439457863167 L 980.7071088205358 104.27533357616261 L 980.3852762852122 104.21481471261686 L 980.0647985696867 104.15284403983036 L 979.7457077214636 104.08942775481871 L 979.4280356493623 104.02457219915762 L 979.1118141203248 103.95828385834857 L 978.7970747562407 103.89056936117039 L 978.4838490307841 103.82143547901642 L 978.1721682662666 103.75088912521721 L 977.8620636305047 103.6789373543494 L 977.5535661337038 103.60558736153007 L 977.2467066253565 103.53084648169742 L 976.9415157911577 103.45472218887711 L 976.6380241499367 103.37722209543503 L 976.3362620506044 103.2983539513159 L 976.0362596691198 103.21812564326842 L 975.7380470054705 103.13654519405655 L 975.4416538806747 103.05362076165721 L 975.1471099337978 102.96936063844456 L 974.854444618989 102.88377325036069 L 974.5636872025359 102.79686715607309 L 974.2748667599379 102.70865104611876 L 973.9880121729985 102.61913374203517 L 973.7031521269374 102.52832419547818 L 973.4203151075218 102.43623148732672 L 973.139529398218 102.34286482677487 L 972.8608230773629 102.24823355041092 L 972.5842240153562 102.1523471212836 L 972.3097598718739 102.05521512795593 L 972.0374580931013 101.95684728354631 L 971.7673459089897 101.8572534247572 L 971.4994503305321 101.7564435108915 L 971.2337981470632 101.65442762285656 L 970.9704159235802 101.55121596215619 L 970.7093299980857 101.44681884987045 L 970.4505664789547 101.34124672562358 L 970.1941512423234 101.23451014654 L 969.9401099295021 101.1266197861887 L 969.6884679444101 101.01758643351579 L 969.4392504510364 100.90742099176568 L 969.1924823709226 100.79613447739074 L 968.9481883806709 100.68373801894967 L 968.7063929094769 100.57024285599465 L 968.4671201366863 100.4556603379474 L 968.2303939893768 100.34000192296425 L 967.996238139966 100.22327917679029 L 967.7646760038436 100.10550377160288 L 967.5357307370303 99.98668748484441 L 967.3094252338622 99.86684219804452 L 967.0857821247006 99.74597989563205 L 966.8648237736703 99.62411266373647 L 966.6465722764224 99.50125268897946 L 966.4310494579245 99.3774122572561 L 966.2182768702788 99.25260375250636 L 966.0082757905672 99.1268396554767 L 965.8010672187221 99.00013254247203 L 965.5966718754285 98.87249508409806 L 965.39511020005 98.74394004399426 L 965.1964023485865 98.61448027755752 L 965.0005681916573 98.4841287306566 L 964.8076273125151 98.35289843833755 L 964.6175990050868 98.22080252352026 L 964.4305022720451 98.08785419568612 L 964.2463558229072 97.95406674955713 L 964.0651780721645 97.81945356376642 L 963.8869871374411 97.68402809952038 L 963.7118008376822 97.54780389925257 L 963.5396366913716 97.41079458526953 L 963.3705119147804 97.27301385838845 L 963.2044434202455 97.13447549656723 L 963.0414478144779 96.9951933535266 L 962.8815413969023 96.85518135736477 L 962.7247401580273 96.7144535091647 L 962.571059777846 96.57302388159394 L 962.4205156242684 96.43090661749739 L 962.2731227515844 96.28811592848301 L 962.1288958989585 96.14466609350072 L 961.9878494889557 96.00057145741448 L 961.8499976260995 95.85584642956783 L 961.7153540954613 95.71050548234294 L 961.5839323612819 95.56456314971341 L 961.4557455656253 95.41803402579089 L 961.3308065270643 95.27093276336566 L 961.2091277393984 95.1232740724414 L 961.0907213704052 94.97507271876412 L 960.9755992606227 94.82634352234572 L 960.8637729221663 94.67710135598188 L 960.7552535375763 94.52736114376488 L 960.6500519587008 94.37713785959114 L 960.5481787056102 94.22644652566392 L 960.4496439655449 94.07530221099101 L 960.3544575918966 93.92372002987796 L 960.2626291032234 93.7717151404165 L 960.1741676822977 93.61930274296898 L 960.0890821751879 93.46649807864809 L 960.0073810903737 93.31331642779293 L 959.9290725978956 93.15977310844094 L 959.8541645285375 93.00588347479611 L 959.782664373044 92.85166291569354 L 959.714579281371 92.69712685306065 L 959.649916061971 92.54229074037492 L 959.5886811811121 92.38717006111858 L 959.5308807622312 92.23178032723028 L 959.4765205853221 92.07613707755394 L 959.4256060863571 91.92025587628481 L 959.3781423567439 91.76415231141313 L 959.3341341428156 91.60784199316528 L 959.2935858453571 91.45134055244284 L 959.2565015191644 91.29466363925947 L 959.2228848726393 91.13782692117591 L 959.1927392674181 90.98084608173329 L 959.1660677180364 90.82373681888473 L 959.1428728916269 90.66651484342557 L 959.123157107653 90.50919587742237 L 959.1069223376766 90.35179565264062 L 959.094170205161 90.19432990897162 L 959.0849019853091 90.03681439285853 L 959.079118604935 89.87926485572169 L 959.076820642372 89.72169705238353 L 959.0780083274143 89.56412673949308 L 959.0826815412946 89.4065696739503 L 959.0908398166953 89.24904161133048 L 959.1024823377955 89.09155830430858 L 959.1176079403531 88.93413550108409 L 959.1362151118201 88.77678894380612 L 959.1583019914953 88.6195343669993 L 959.1838663707086 88.46238749599026 L 959.2129056930439 88.30536404533514 L 959.2454170545928 88.14847971724815 L 959.2813972042464 87.99175020003138 L 959.3208425440198 87.83519116650592 L 959.3637491294116 87.67881827244467 L 959.4101126697993 87.52264715500674 L 959.4599285288674 87.36669343117372 L 959.5131917250716 87.21097269618801 L 959.5698969321364 87.05550052199337 L 959.6300384795886 86.90029245567764 L 959.6936103533235 86.74536401791813 L 959.7606061962066 86.59073070142951 L 959.8310193087096 86.43640796941455 L 959.9048426495799 86.28241125401786 L 959.9820688365448 86.12875595478266 L 960.0626901470501 85.9754574371108 L 960.1466985190319 85.82253103072632 L 960.2340855517231 85.66999202814243 L 960.324842506493 85.51785568313225 L 960.4189603077219 85.36613720920352 L 960.5164295437081 85.21485177807718 L 960.6172404676093 85.06401451817028 L 960.7213829984171 84.91364051308312 L 960.8288467219651 84.7637448000909 L 960.9396208919705 84.61434236864 L 961.0536944311087 84.46544815884906 L 961.1710559321208 84.317077060015 L 961.2916936589546 84.16924390912402 L 961.4155955479378 84.02196348936806 L 961.5427492089848 83.87525052866634 L 961.6731419268355 83.72911969819268 L 961.8067606623267 83.58358561090833 L 961.9435920536963 83.43866282010077 L 962.0836224179191 83.2943658179283 L 962.2268377520754 83.15070903397088 L 962.3732237347512 83.00770683378721 L 962.5227657274701 82.86537351747812 L 962.6754487761574 82.72372331825665 L 962.8312576126357 82.58277040102466 L 962.990176656151 82.44252886095644 L 963.1521900149314 82.30301272208911 L 963.3172814877762 82.16423593592029 L 963.4854345656755 82.02621238001296 L 963.6566324334617 81.8889558566077 L 963.8308579714907 81.75248009124245 L 964.0080937573538 81.61679873138003 L 964.1883220676202 81.48192534504335 L 964.3715248796091 81.34787341945867 L 964.5576838731919 81.21465635970681 L 964.7467804326244 81.08228748738274 L 964.9387956484081 80.9507800392634 L 965.1337103191818 80.82014716598401 L 965.3315049536404 80.69040193072303 L 965.5321597724856 80.56155730789585 L 965.7356547104025 80.4336261818574 L 965.9419694180671 80.30662134561369 L 966.1510832641804 80.18055549954249 L 966.3629753375322 80.05544125012335 L 966.5776244490917 79.93129110867696 L 966.7950091341264 79.80811749011399 L 967.0151076543492 79.68593271169367 L 967.2378980000915 79.564748991792 L 967.4633578925042 79.44457844868002 L 967.6914647857861 79.32543309931187 L 967.9221958694378 79.2073248581232 L 968.1555280705435 79.09026553583972 L 968.3914380560772 78.9742668382961 L 968.6299022352371 78.85934036526544 L 968.870896761804 78.74549760929925 L 969.1143975365261 78.63274995457827 L 969.3603802095288 78.52110867577403 L 969.6088201827497 78.41058493692135 L 969.8596926123987 78.30118979030203 L 970.1129724114417 78.19293417533956 L 970.36863425211 78.08582891750524 L 970.6266525684325 77.97988472723559 L 970.8870015587927 77.87511219886133 L 971.1496551885084 77.77152180954802 L 971.4145871924355 77.66912391824825 L 971.6817710775945 77.56792876466582 L 971.9511801258194 77.46794646823176 L 972.22278739643 77.3691870270924 L 972.4965657289256 77.27166031710954 L 972.7724877457009 77.17537609087292 L 973.0505258547844 77.08034397672492 L 973.3306522525967 76.98657347779778 L 973.6128389267315 76.89407397106321 L 973.8970576587566 76.80285470639484 L 974.1832800270356 76.71292480564311 L 974.4714774095702 76.62429326172315 L 974.7616209868623 76.5369689377155 L 975.053681744796 76.45096056597977 L 975.3476304775389 76.36627674728149 L 975.6434377904626 76.28292594993192 L 975.9410741030823 76.20091650894139 L 976.2405096520149 76.12025662518562 L 976.541714493955 76.04095436458577 L 976.8446585086693 75.96301765730183 L 977.149311402009 75.88645429693958 L 977.4556427089383 75.81127193977125 L 977.763621796582 75.73747810396989 L 978.073217867288 75.6650801688576 L 978.3843999617072 75.59408537416756 L 978.6971369618894 75.52450081932008 L 979.0113975943954 75.45633346271266 L 979.3271504334235 75.38959012102414 L 979.6443639039533 75.32427746853308 L 979.9630062849018 75.2604020364503 L 980.2830457122965 75.19797021226579 L 980.6044501824615 75.13698823910991 L 980.9271875552174 75.07746221512919 L 981.2512255570961 75.01939809287641 L 981.5765317845672 74.96280167871541 L 981.9030737072793 74.90767863224045 L 982.2308186713121 74.85403446571023 L 982.5597339024423 74.8018745434967 L 982.889786509421 74.75120408154862 L 983.2209434872624 74.70202814686996 L 983.5531717205448 74.65435165701321 L 983.8864379867216 74.60817937958763 L 984.220708959444 74.56351593178246 L 984.5559512118933 74.52036577990529 L 984.8921312201235 74.47873323893533 L 985.2292153664141 74.43862247209199 L 985.5671699426313 74.40003749041855 L 985.9059611535989 74.362982152381 L 986.2455551204786 74.32746016348226 L 986.5859178841562 74.29347507589162 L 986.9270154086392 74.26103028808953 L 987.2688135844595 74.23012904452773 L 987.6112782320843 74.20077443530484 L 987.954375105334 74.17296939585728 L 988.2980698948073 74.14671670666586 L 988.6423282313119 74.1220189929776 L 988.9871156893007 74.0988787245433 L 989.3323977903154 74.07729821537052 L 989.6781400064338 74.05727962349219 L 990.0243077637219 74.03882495075081 L 990.370866445693 74.02193604259828 L 990.7177813967674 74.00661458791136 L 991.065017925739 73.99286211882271 L 991.4125413092445 73.98068001056782 L 991.760316795235 73.97006948134734 L 992.1083096064518 73.96103159220536 L 992.4564849439038 73.95356724692326 L 992.8048079903473 73.94767719192933 L 993.1532439137679 73.94336201622419 L 993.5017578708637 73.9406221513218 L 993.8503150105295 73.93945787120637 L 994.1988804773416 73.93986929230493 L 994.5474194150439 73.94185637347573 L 994.895896970033 73.9454189160123 L 995.244278294844 73.95055656366337 L 995.5925285516346 73.95726880266844 L 995.9406129156692 73.96555496180919 L 996.2884965788016 73.97541421247664 L 996.6361447529555 73.98684556875392 L 996.983522673603 73.99984788751495 L 997.3305956032416 74.01441986853865 L 997.6773288348676 74.03056005463911 L 998.0236876954467 74.04826683181113 L 998.3696375493814 74.06753842939176 L 998.7151438019748 74.08837292023732 L 999.0601719028895 74.11076822091607 L 999.4046873496029 74.1347220919166 L 999.7486556908574 74.16023213787177 L 1000.0920425301055 74.18729580779828 L 1000.4348135289495 74.21591039535164 L 1000.776934410575 74.24607303909696 L 1001.1183709631791 74.27778072279501 L 1001.4590890433911 74.31103027570384 L 1001.7990545796868 74.34581837289585 L 1002.1382335757959 74.38214153559034 L 1002.4765921141014 74.41999613150128 L 1002.8140963590316 74.45937837520066 L 1003.1507125604431 74.50028432849687 L 1003.4864070569963 74.54270990082874 L 1003.8211462795213 74.58665084967434 L 1004.1548967543747 74.63210278097542 L 1004.4876251067874 74.67906114957673 L 1004.8192980642011 74.72752125968053 L 1005.1498824595968 74.7774782653162 L 1005.4793452348101 74.82892717082481 L 1005.8076534438384 74.88186283135869 L 1006.134774256134 74.93627995339588 L 1006.4606749598885 74.99217309526954 L 1006.7853229653031 75.04953666771203 L 1007.1086858078477 75.10836493441396 L 1007.4307311515076 75.16865201259765 L 1007.7514267920168 75.23039187360551 L 1008.0707406600784 75.29357834350293 L 1008.3886408245718 75.35820510369552 L 1008.7050954957455 75.42426569156117 L 1009.0200730283959 75.49175350109611 L 1009.3335419250324 75.56066178357565 L 1009.6454708390264 75.63098364822895 L 1009.9558285777466 75.70271206292813 L 1010.2645841056777 75.77583985489153 L 1010.5717065475243 75.85035971140087 L 1010.8771651912979 75.9262641805326 L 1011.1809294913888 76.00354567190305 L 1011.4829690716202 76.08219645742753 L 1011.7832537282858 76.16220867209297 L 1012.08175343317 76.24357431474462 L 1012.3784383365511 76.32628524888601 L 1012.6732787701861 76.41033320349264 L 1012.9662452502773 76.49570977383911 L 1013.2573084804208 76.5824064223395 L 1013.5464393545361 76.67041447940124 L 1013.8336089597768 76.75972514429195 L 1014.1187885794217 76.85032948601956 L 1014.4019496957465 76.94221844422542 L 1014.6830639928754 77.03538283009026 L 1014.962103359613 77.12981332725315 L 1015.2390398922553 77.22550049274304 L 1015.5138458973796 77.32243475792315 L 1015.7864938946145 77.42060642944772 L 1016.0569566193875 77.52000569023141 L 1016.3252070256515 77.62062260043099 L 1016.5912182885894 77.72244709843926 L 1016.8549638072966 77.8254690018913 L 1017.1164172074409 77.9296780086826 L 1017.3755523439004 78.03506369799932 L 1017.6323433033772 78.14161553136036 L 1017.8867644069893 78.24932285367117 L 1018.1387902128386 78.35817489428928 L 1018.3883955185544 78.46816076810133 L 1018.635555363814 78.5792694766116 L 1018.8802450328391 78.69148990904182 L 1019.1224400568665 78.80481084344227 L 1019.3621162165957 78.91922094781395 L 1019.5992495446104 79.03470878124175 L 1019.8338163277756 79.15126279503858 L 1020.0657931096082 79.26887133390018 L 1020.2951566926236 79.38752263707069 L 1020.5218841406544 79.50720483951864 L 1020.7459527811448 79.62790597312352 L 1020.9673402074175 79.74961396787259 L 1021.1860242809142 79.87231665306776 L 1021.4019831334101 79.99600175854277 L 1021.6151951691999 80.12065691589017 L 1021.8256390672573 80.24626965969807 L 1022.0332937833682 80.37282742879678 L 1022.238138552234 80.50031756751486 L 1022.4401528895485 80.62872732694467 L 1022.6393165940461 80.75804386621728 L 1022.8356097495226 80.88825425378653 L 1023.0290127268261 81.01934546872216 L 1023.2195061858197 81.15130440201193 L 1023.4070710773163 81.28411785787247 L 1023.5916886449834 81.41777255506886 L 1023.7733404272177 81.55225512824279 L 1023.9520082589926 81.68755212924899 L 1024.1276742736736 81.82365002850011 L 1024.3003209048059 81.96053521631964 L 1024.4699308878699 82.09819400430287 L 1024.6364872620088 82.2366126266857 L 1024.7999733717243 82.37577724172127 L 1024.960372868541 82.51567393306402 L 1025.1176697126436 82.65628871116141 L 1025.2718481744782 82.79760751465281 L 1025.4228928363275 82.93961621177563 L 1025.570788593851 83.08230060177851 L 1025.715520657596 83.22564641634133 L 1025.857074554477 83.36963932100211 L 1025.9954361292223 83.51426491659036 L 1026.1305915457897 83.65950874066706 L 1026.2625272887499 83.80535626897083 L 1026.391230164639 83.95179291687037 L 1026.5166873032763 84.09880404082293 L 1026.6388861590526 84.24637493983863 L 1026.7578145121843 84.39449085695053 L 1026.8734604699348 84.54313698069035 L 1026.985812467805 84.6922984465696 L 1027.0948592706889 84.84196033856598 L 1027.2005899739968 84.99210769061501 L 1027.3029940047466 85.14272548810662 L 1027.4020611226204 85.29379866938656 L 1027.4977814209892 85.4453121272626 L 1027.5901453279027 85.59725071051521 L 1027.6791436070473 85.7495992254127 L 1027.7647673586694 85.9023424372305 L 1027.8470080204647 86.05546507177475 L 1027.9258573684363 86.20895181690959 L 1028.0013075177144 86.36278732408839 L 1028.0733509233473 86.51695620988865 L 1028.1419803810545 86.67144305755023 L 1028.2071890279472 86.82623241851717 L 1028.2689703432152 86.9813088139823 L 1028.3273181487787 87.13665673643531 L 1028.3822266099053 87.29226065121345 L 1028.4336902357948 87.44810499805489 L 1028.4817038801277 87.6041741926548 L 1028.5262627415793 87.76045262822379 L 1028.5673623643008 87.91692467704854 L 1028.6049986383641 88.07357469205456 L 1028.6391678001733 88.23038700837088 L 1028.6698664328403 88.38734594489657 L 1028.6970914665278 88.54443580586873 L 1028.720840178755 88.70164088243222 L 1028.7411101946705 88.85894545421036 L 1028.7578994872893 89.01633379087706 L 1028.7712063776964 89.17379015372981 L 1028.7810295352142 89.33129879726356 L 1028.7873679775344 89.48884397074518 L 1028.7902210708185 89.64640991978864 M 1028.7903979024388 139.83310991029998 L 1028.7886550764258 139.99067916825504 L 1028.7834267726678 140.14823266941562 L 1028.7747135139907 140.30575465856288 L 1028.7625161717133 140.4632293836292 L 1028.7468359655595 140.62064109727325 L 1028.727674463537 140.7779740584549 L 1028.7050335817798 140.9352125340091 L 1028.6789155843576 141.09234080021938 L 1028.6493230830479 141.24934314439 L 1028.6162590370766 141.40620386641743 L 1028.5797267528205 141.56290728036012 L 1028.5397298834778 141.71943771600732 L 1028.4962724287018 141.87577952044586 L 1028.449358734202 142.0319170596256 L 1028.3989934913086 142.1878347199228 L 1028.3451817365042 142.34351690970124 L 1028.287928850919 142.49894806087175 L 1028.2272405597942 142.65411263044874 L 1028.163122931908 142.80899510210455 L 1028.09558237897 142.96357998772106 L 1028.0246256549794 143.11785182893854 L 1027.9502598555491 143.27179519870145 L 1027.8724924171972 143.42539470280107 L 1027.7913311166028 143.578634981415 L 1027.7067840698285 143.73150071064308 L 1027.6188597315079 143.8839766040398 L 1027.5275668940021 144.0360474141428 L 1027.4329146865189 144.1876979339979 L 1027.3349125741995 144.3389129986794 L 1027.2335703571741 144.48967748680693 L 1027.1288981695798 144.63997632205724 L 1027.0209064785479 144.7897944746721 L 1026.9096060831575 144.93911696296107 L 1026.7950081133558 145.08792885479977 L 1026.677124028844 145.23621526912302 L 1026.5559656179323 145.38396137741296 L 1026.431544996361 145.5311524051819 L 1026.3038746060884 145.67777363344968 L 1026.172967214047 145.82381040021568 L 1026.0388359108674 145.96924810192493 L 1025.9014941095677 146.11407219492847 L 1025.7609555442136 146.25826819693765 L 1025.6172342685447 146.40182168847244 L 1025.4703446545689 146.5447183143033 L 1025.3203013911248 146.68694378488678 L 1025.1671194824141 146.8284838777943 L 1025.0108142464999 146.96932443913454 L 1024.8514013137753 147.1094513849687 L 1024.688896625401 147.248850702719 L 1024.5233164317103 147.38750845256985 L 1024.3546772905847 147.52541076886175 L 1024.1829960657979 147.66254386147804 L 1024.0082899253289 147.79889401722372 L 1023.8305763396464 147.9344476011968 L 1023.6498730799608 148.06919105815194 L 1023.4661982164477 148.20311091385565 L 1023.2795701164401 148.33619377643396 L 1023.0900074425927 148.46842633771158 L 1022.8975291510147 148.59979537454248 L 1022.7021544893751 148.73028775013253 L 1022.503902994977 148.8598904153529 L 1022.3027944928049 148.98859041004505 L 1022.0988490935412 149.11637486431675 L 1021.8920871915559 149.24323099982908 L 1021.682529462867 149.36914613107422 L 1021.4701968630728 149.49410766664394 L 1021.2551106252562 149.61810311048882 L 1021.0372922578617 149.7411200631678 L 1020.8167635425448 149.8631462230882 L 1020.5935465319928 149.98416938773562 L 1020.3676635477211 150.10417745489448 L 1020.1391371778399 150.22315842385808 L 1019.9079902747956 150.34110039662866 L 1019.6742459530859 150.45799157910724 L 1019.4379275869481 150.573820282273 L 1019.1990588080222 150.6885749233521 L 1018.9576635029867 150.8022440269761 L 1018.7137658111711 150.91481622632935 L 1018.4673901221413 151.0262802642857 L 1018.218561073261 151.1366249945343 L 1017.9673035472275 151.245839382694 L 1017.7136426695841 151.35391250741705 L 1017.4576038062074 151.46083356148102 L 1017.1992125607701 151.56659185286964 L 1016.9384947721816 151.67117680584184 L 1016.6754765120033 151.7745779619895 L 1016.4101840818423 151.8767849812832 L 1016.1426440107203 151.97778764310618 L 1015.8728830524216 152.0775758472764 L 1015.6009281828171 152.1761396150566 L 1015.3268065971673 152.27346909015216 L 1015.0505457074023 152.36955453969665 L 1014.7721731393807 152.4643863552252 L 1014.4917167301275 152.5579550536353 L 1014.2092045250498 152.65025127813507 L 1013.9246647751328 152.74126579917896 L 1013.6381259341142 152.83098951539074 L 1013.3496166556396 152.91941345447353 L 1013.059165790396 153.00652877410712 L 1012.7668023832284 153.09232676283216 L 1012.4725556702334 153.17679884092124 L 1012.1764550758375 153.25993656123694 L 1011.878530209853 153.34173161007655 L 1011.5788108645186 153.42217580800335 L 1011.2773270115188 153.50126111066453 L 1010.9741087989878 153.5789796095958 L 1010.6691865484942 153.65532353301197 L 1010.3625907520087 153.73028524658434 L 1010.0543520688558 153.80385725420402 L 1009.7445013226467 153.87603219873156 L 1009.4330694981979 153.94680286273265 L 1009.1200877384323 154.0161621691999 L 1008.8055873412651 154.0841031822604 L 1008.4895997564739 154.1506191078695 L 1008.172156582554 154.21570329449005 L 1007.853289563558 154.27934923375767 L 1007.5330305859221 154.34155056113138 L 1007.2114116752774 154.40230105653038 L 1006.8884649932469 154.4615946449557 L 1006.5642228342294 154.5194253970979 L 1006.2387176221711 154.57578752993 L 1005.9119819073214 154.63067540728565 L 1005.58404836298 154.68408354042288 L 1005.2549497822276 154.73600658857285 L 1004.9247190746485 154.78643935947403 L 1004.5933892630379 154.83537680989136 L 1004.260993480101 154.8828140461206 L 1003.927564965139 154.9287463244776 L 1003.5931370607257 154.97316905177286 L 1003.2577432093727 155.01607778577065 L 1002.9214169501859 155.0574682356333 L 1002.5841919155106 155.09733626235035 L 1002.2461018275694 155.13567787915235 L 1001.9071804950894 155.17248925190958 L 1001.5674618099214 155.2077666995154 L 1001.2269797436506 155.24150669425447 L 1000.8857683442003 155.27370586215542 L 1000.5438617324259 155.30436098332834 L 1000.2012940987036 155.33346899228658 L 999.8580996995113 155.3610269782536 L 999.5143128540029 155.38703218545365 L 999.1699679405767 155.41148201338777 L 998.8250993934369 155.43437401709352 L 998.4797416991507 155.4557059073896 L 998.1339293932 155.47547555110475 L 997.787697056527 155.4936809712911 L 997.441079312077 155.51032034742175 L 997.0941108213356 155.52539201557303 L 996.7468262808626 155.5388944685906 L 996.3992604188227 155.55082635624046 L 996.0514479915125 155.5611864853438 L 995.7034237798849 155.56997381989632 L 995.355222586071 155.57718748117188 L 995.0068792299 155.58282674781037 L 994.6584285454173 155.58689105588982 L 994.3099053774009 155.58937999898285 L 993.9613445778773 155.59029332819716 L 993.6127810026358 155.58963095220065 L 993.2642495077436 155.5873929372303 L 992.9157849460596 155.58357950708583 L 992.5674221637497 155.578191043107 L 992.2191959968018 155.57122808413575 L 991.8711412675425 155.5626913264622 L 991.5232927811545 155.55258162375492 L 991.1756853221966 155.54089998697586 L 990.8283536511252 155.5276475842789 L 990.4813325008178 155.51282574089328 L 990.1346565731003 155.49643593899097 L 989.7883605352765 155.47847981753853 L 989.4424790166618 155.45895917213312 L 989.0970466051197 155.43787595482303 L 988.7520978436033 155.41523227391244 L 988.4076672267016 155.39103039375053 L 988.0637891971892 155.36527273450517 L 987.7204981425824 155.3379618719208 L 987.3778283917006 155.30910053706094 L 987.0358142112335 155.27869161603502 L 986.6944898023139 155.2467381497098 L 986.3538892970984 155.2132433334053 L 986.0140467553535 155.17821051657523 L 985.6749961610504 155.14164320247204 L 985.3367714189659 155.10354504779673 L 984.9994063512925 155.063919862333 L 984.6629346942555 155.02277160856633 L 984.3273900947404 154.98010440128786 L 983.9928061069276 154.93592250718277 L 983.659216188937 154.8902303444036 L 983.3266536994823 154.84303248212856 L 982.9951518945355 154.79433364010458 L 982.6647439240008 154.7441386881753 L 982.3354628283998 154.692452645794 L 982.0073415355678 154.6392806815219 L 981.6804128573606 154.58462811251115 L 981.3547094863735 154.52850040397303 L 981.0302639926722 154.47090316863168 L 980.7071088205358 154.41184216616261 L 980.3852762852122 154.35132330261686 L 980.0647985696867 154.28935262983035 L 979.7457077214636 154.22593634481873 L 979.4280356493623 154.1610807891576 L 979.1118141203248 154.09479244834856 L 978.7970747562407 154.0270779511704 L 978.4838490307841 153.95794406901643 L 978.1721682662666 153.88739771521722 L 977.8620636305047 153.8154459443494 L 977.5535661337038 153.74209595153008 L 977.2467066253565 153.66735507169741 L 976.9415157911577 153.59123077887713 L 976.6380241499367 153.51373068543504 L 976.3362620506044 153.4348625413159 L 976.0362596691198 153.35463423326843 L 975.7380470054705 153.27305378405654 L 975.4416538806747 153.19012935165722 L 975.1471099337978 153.10586922844456 L 974.854444618989 153.0202818403607 L 974.5636872025359 152.9333757460731 L 974.2748667599379 152.84515963611875 L 973.9880121729985 152.7556423320352 L 973.7031521269374 152.66483278547818 L 973.4203151075218 152.57274007732673 L 973.139529398218 152.47937341677488 L 972.8608230773629 152.3847421404109 L 972.5842240153562 152.2888557112836 L 972.3097598718739 152.19172371795594 L 972.0374580931013 152.09335587354633 L 971.7673459089897 151.9937620147572 L 971.4994503305321 151.8929521008915 L 971.2337981470632 151.79093621285656 L 970.9704159235802 151.6877245521562 L 970.7093299980857 151.58332743987046 L 970.4505664789547 151.4777553156236 L 970.1941512423234 151.37101873654 L 969.9401099295021 151.2631283761887 L 969.6884679444101 151.1540950235158 L 969.4392504510364 151.04392958176567 L 969.1924823709226 150.93264306739073 L 968.9481883806709 150.82024660894967 L 968.7063929094769 150.70675144599466 L 968.4671201366863 150.5921689279474 L 968.2303939893768 150.47651051296424 L 967.996238139966 150.3597877667903 L 967.7646760038436 150.2420123616029 L 967.5357307370303 150.12319607484443 L 967.3094252338622 150.00335078804454 L 967.0857821247006 149.88248848563205 L 966.8648237736703 149.76062125373647 L 966.6465722764224 149.63776127897947 L 966.4310494579245 149.5139208472561 L 966.2182768702788 149.38911234250637 L 966.0082757905672 149.2633482454767 L 965.8010672187221 149.13664113247202 L 965.5966718754285 149.00900367409807 L 965.39511020005 148.88044863399426 L 965.1964023485865 148.75098886755754 L 965.0005681916573 148.6206373206566 L 964.8076273125151 148.48940702833755 L 964.6175990050868 148.35731111352027 L 964.4305022720451 148.2243627856861 L 964.2463558229072 148.09057533955715 L 964.0651780721645 147.95596215376642 L 963.8869871374411 147.82053668952037 L 963.7118008376822 147.6843124892526 L 963.5396366913716 147.54730317526955 L 963.3705119147804 147.40952244838846 L 963.2044434202455 147.27098408656724 L 963.0414478144779 147.1317019435266 L 962.8815413969023 146.9916899473648 L 962.7247401580273 146.85096209916472 L 962.571059777846 146.70953247159395 L 962.4205156242684 146.5674152074974 L 962.2731227515844 146.424624518483 L 962.1288958989585 146.28117468350072 L 961.9878494889557 146.13708004741449 L 961.8499976260995 145.99235501956784 L 961.7153540954613 145.84701407234294 L 961.5839323612819 145.70107173971343 L 961.4557455656253 145.5545426157909 L 961.3308065270643 145.40744135336567 L 961.2091277393984 145.2597826624414 L 961.0907213704052 145.11158130876413 L 960.9755992606227 144.96285211234573 L 960.8637729221663 144.81360994598188 L 960.7552535375763 144.6638697337649 L 960.6500519587008 144.51364644959116 L 960.5481787056102 144.36295511566394 L 960.4496439655449 144.21181080099103 L 960.3544575918966 144.06022861987796 L 960.2626291032234 143.90822373041652 L 960.1741676822977 143.755811332969 L 960.0890821751879 143.60300666864808 L 960.0073810903737 143.44982501779293 L 959.9290725978956 143.29628169844094 L 959.8541645285375 143.1423920647961 L 959.782664373044 142.98817150569354 L 959.714579281371 142.83363544306067 L 959.649916061971 142.67879933037491 L 959.5886811811121 142.5236786511186 L 959.5308807622312 142.3682889172303 L 959.4765205853221 142.21264566755394 L 959.4256060863571 142.05676446628482 L 959.3781423567439 141.90066090141312 L 959.3341341428156 141.7443505831653 L 959.2935858453571 141.58784914244285 L 959.2565015191644 141.4311722292595 L 959.2228848726393 141.27433551117593 L 959.1927392674181 141.1173546717333 L 959.1660677180364 140.96024540888473 L 959.1428728916269 140.80302343342558 L 959.123157107653 140.64570446742238 L 959.1069223376766 140.48830424264062 L 959.094170205161 140.33083849897162 L 959.0849019853091 140.17332298285854 L 959.079118604935 140.0157734457217 L 959.076820642372 139.85820564238352" stroke-miterlimit="10" stroke-width="4.058669743" stroke-dasharray=""/></g><g><g/><text fill="black" stroke="none" font-family="sans-serif" font-size="11pt" font-style="normal" font-weight="normal" text-decoration="normal" x="958.6252528178529" y="181.20766676099998" text-anchor="start" dominant-baseline="alphabetic" xml:space="preserve">MongoDB</text></g></g><g><g><g><rect fill="white" stroke="none" x="135.6869002316667" y="236.11908093099996" width="146.36235531824218" height="31.03688627"/></g><text fill="black" stroke="none" font-family="sans-serif" font-size="11pt" font-style="normal" font-weight="normal" text-decoration="normal" x="139.2680794166667" y="257.60615604099996" text-anchor="start" dominant-baseline="alphabetic" xml:space="preserve">POST /reservations</text></g><g><path fill="none" stroke="black" paint-order="fill stroke markers" d=" M 107.43537555 267.15596720099995 L 290.6440855939089 267.15596720099995" stroke-miterlimit="10" stroke-width="1.9895439916666666" stroke-dasharray=""/><g transform="translate(310.3007802315756,267.15596720099995) translate(-310.3007802315756,-267.15596720099995)"><path fill="black" stroke="none" paint-order="stroke fill markers" d=" M 290.4053403149089 257.20824724266663 L 310.3007802315756 267.15596720099995 L 290.4053403149089 277.1036871593333 Z"/></g></g><g><g><rect fill="white" stroke="none" x="137.5619002316667" y="302.9677590509999" width="142.61235531824218" height="31.03688627"/></g><text fill="black" stroke="none" font-family="sans-serif" font-size="11pt" font-style="normal" font-weight="normal" text-decoration="normal" x="141.1430794166667" y="324.4548341609999" text-anchor="start" dominant-baseline="alphabetic" xml:space="preserve">Erros de Validação</text></g><g><path fill="none" stroke="red" paint-order="fill stroke markers" d=" M 310.3007802315756 334.00464532099994 L 110.4196915375 334.00464532099994" stroke-miterlimit="10" stroke-width="1.9895439916666666" stroke-dasharray="9.54981116"/><g transform="translate(107.43537555,334.00464532099994) translate(-107.43537555,-334.00464532099994)"><path fill="none" stroke="red" paint-order="fill stroke markers" d=" M 127.8899634944636 324.8796797650888 L 109.67196766118771 334.00464532099994 L 127.8899634944636 343.1296108769111" stroke-miterlimit="10" stroke-width="1.9895439916666666"/></g></g><g><g><rect fill="white" stroke="none" x="560.5276732161791" y="369.8164371709999" width="183.17902096765624" height="31.03688627"/></g><text fill="black" stroke="none" font-family="sans-serif" font-size="11pt" font-style="normal" font-weight="normal" text-decoration="normal" x="564.1088524011791" y="391.3035122809999" text-anchor="start" dominant-baseline="alphabetic" xml:space="preserve">Nova Reserva (Pending)</text></g><g><path fill="none" stroke="#0080ff" paint-order="fill stroke markers" d=" M 310.3007802315756 400.85332344099993 L 974.2768925307722 400.85332344099993" stroke-miterlimit="10" stroke-width="1.9895439916666666" stroke-dasharray=""/><g transform="translate(993.9335871684389,400.85332344099993) translate(-993.9335871684389,-400.85332344099993)"><path fill="#0080ff" stroke="none" paint-order="stroke fill markers" d=" M 974.0381472517722 390.9056034826666 L 993.9335871684389 400.85332344099993 L 974.0381472517722 410.80104339933325 Z"/></g></g><g><g><rect fill="white" stroke="none" x="458.96394502132273" y="436.66511529099995" width="253.01236447351562" height="31.03688627"/></g><text fill="black" stroke="none" font-family="sans-serif" font-size="11pt" font-style="normal" font-weight="normal" text-decoration="normal" x="462.5451242063227" y="458.1521904009999" text-anchor="start" dominant-baseline="alphabetic" xml:space="preserve">PendingReservationCreatedEvent</text></g><g><path fill="none" stroke="#0080ff" paint-order="fill stroke markers" d=" M 310.3007802315756 447.8882293669689 L 841.1471630371498 516.9749949198468" stroke-miterlimit="10" stroke-width="1.9895439916666666" stroke-dasharray=""/><g transform="translate(860.6394742845854,519.5118130669689) rotate(7.415056647711274,0,0) translate(-860.6394742845854,-519.5118130669689)"><path fill="#0080ff" stroke="none" paint-order="stroke fill markers" d=" M 840.7440343679187 509.5640931086356 L 860.6394742845854 519.5118130669689 L 840.7440343679187 529.4595330253022 Z"/><g transform="rotate(-7.415056647711274,0,0)"/></g></g><g><g><rect fill="white" stroke="none" x="528.8134049489994" y="555.323604916969" width="253.01236447351562" height="31.03688627"/></g><text fill="black" stroke="none" font-family="sans-serif" font-size="11pt" font-style="normal" font-weight="normal" text-decoration="normal" x="532.3945841339994" y="576.810680026969" text-anchor="start" dominant-baseline="alphabetic" xml:space="preserve">PendingReservationCreatedEvent</text></g><g><path fill="none" stroke="#0080ff" paint-order="fill stroke markers" d=" M 860.6394742845854 586.3604911869689 L 469.65639472459577 586.3604911869689" stroke-miterlimit="10" stroke-width="1.9895439916666666" stroke-dasharray="9.54981116"/><g transform="translate(449.9997000869291,586.3604911869689) translate(-449.9997000869291,-586.3604911869689)"><path fill="#0080ff" stroke="none" paint-order="stroke fill markers" d=" M 469.89514000359577 576.4127712286356 L 449.9997000869291 586.3604911869689 L 469.89514000359577 596.3082111453023 Z"/></g></g><g><g><rect fill="rgb(204,230,204)" stroke="none" x="640.4854629168051" y="686.633508366969" width="162.9623614217578" height="31.03688627"/></g><text fill="black" stroke="none" font-family="sans-serif" font-size="11pt" font-style="normal" font-weight="normal" text-decoration="normal" x="644.0666421018051" y="708.1205834769689" text-anchor="start" dominant-baseline="alphabetic" xml:space="preserve">Nova Reserva de Vôo</text></g><g><path fill="none" stroke="green" paint-order="fill stroke markers" d=" M 449.9997000869291 692.116241467022 L 974.4451200847014 761.1736422420232" stroke-miterlimit="10" stroke-width="1.9895439916666666" stroke-dasharray=""/><g transform="translate(993.9335871684389,763.739825167022) rotate(7.501380091851744,0,0) translate(-993.9335871684389,-763.739825167022)"><path fill="green" stroke="none" paint-order="stroke fill markers" d=" M 974.0381472517722 753.7921052086887 L 993.9335871684389 763.739825167022 L 974.0381472517722 773.6875451253553 Z"/><g transform="rotate(-7.501380091851744,0,0)"/></g></g><g><g><rect fill="rgb(204,230,204)" stroke="none" x="583.0634049489994" y="799.551617017022" width="144.51236447351562" height="31.03688627"/></g><text fill="black" stroke="none" font-family="sans-serif" font-size="11pt" font-style="normal" font-weight="normal" text-decoration="normal" x="586.6445841339994" y="821.0386921270219" text-anchor="start" dominant-baseline="alphabetic" xml:space="preserve">BookedFlightEvent</text></g><g><path fill="none" stroke="green" paint-order="fill stroke markers" d=" M 449.9997000869291 806.7549710656368 L 841.2751255305399 875.001034756789" stroke-miterlimit="10" stroke-width="1.9895439916666666" stroke-dasharray=""/><g transform="translate(860.6394742845854,878.3785547656369) rotate(9.8939704013041,0,0) translate(-860.6394742845854,-878.3785547656369)"><path fill="green" stroke="none" paint-order="stroke fill markers" d=" M 840.7440343679187 868.4308348073035 L 860.6394742845854 878.3785547656369 L 840.7440343679187 888.3262747239702 Z"/><g transform="rotate(-9.8939704013041,0,0)"/></g></g><g><g><rect fill="rgb(244,214,204)" stroke="none" x="554.5884064748783" y="1014.4633637956367" width="201.4623614217578" height="31.03688627"/></g><text fill="black" stroke="none" font-family="sans-serif" font-size="11pt" font-style="normal" font-weight="normal" text-decoration="normal" x="558.1695856598783" y="1035.9504389056367" text-anchor="start" dominant-baseline="alphabetic" xml:space="preserve">DeniedFlightBookingEvent</text></g><g><path fill="none" stroke="red" paint-order="fill stroke markers" d=" M 449.9997000869291 1026.6333128131719 L 841.2751255305399 1094.8793765043238" stroke-miterlimit="10" stroke-width="1.9895439916666666" stroke-dasharray=""/><g transform="translate(860.6394742845854,1098.2568965131718) rotate(9.8939704013041,0,0) translate(-860.6394742845854,-1098.2568965131718)"><path fill="red" stroke="none" paint-order="stroke fill markers" d=" M 840.7440343679187 1088.3091765548384 L 860.6394742845854 1098.2568965131718 L 840.7440343679187 1108.2046164715052 Z"/><g transform="rotate(-9.8939704013041,0,0)"/></g></g><g><g><rect fill="rgb(244,214,204)" stroke="none" x="484.73894654720164" y="1134.0686883631718" width="201.4623614217578" height="31.03688627"/></g><text fill="black" stroke="none" font-family="sans-serif" font-size="11pt" font-style="normal" font-weight="normal" text-decoration="normal" x="488.32012573220163" y="1155.5557634731717" text-anchor="start" dominant-baseline="alphabetic" xml:space="preserve">DeniedFlightBookingEvent</text></g><g><path fill="none" stroke="red" paint-order="fill stroke markers" d=" M 860.6394742845854 1165.1055746331717 L 329.9574748692422 1165.1055746331717" stroke-miterlimit="10" stroke-width="1.9895439916666666" stroke-dasharray="9.54981116"/><g transform="translate(310.3007802315756,1165.1055746331717) translate(-310.3007802315756,-1165.1055746331717)"><path fill="red" stroke="none" paint-order="stroke fill markers" d=" M 330.1962201482422 1155.1578546748383 L 310.3007802315756 1165.1055746331717 L 330.1962201482422 1175.0532945915052 Z"/></g></g><g><g><rect fill="white" stroke="none" x="660.4422584082116" y="1236.7291583331717" width="144.51236447351562" height="31.03688627"/></g><text fill="black" stroke="none" font-family="sans-serif" font-size="11pt" font-style="normal" font-weight="normal" text-decoration="normal" x="664.0234375932116" y="1258.2162334431716" text-anchor="start" dominant-baseline="alphabetic" xml:space="preserve">BookedFlightEvent</text></g><g><path fill="none" stroke="green" paint-order="fill stroke markers" d=" M 860.6394742845854 1267.7660446031716 L 624.4141016430202 1267.7660446031716" stroke-miterlimit="10" stroke-width="1.9895439916666666" stroke-dasharray="9.54981116"/><g transform="translate(604.7574070053536,1267.7660446031716) translate(-604.7574070053536,-1267.7660446031716)"><path fill="green" stroke="none" paint-order="stroke fill markers" d=" M 624.6528469220202 1257.8183246448382 L 604.7574070053536 1267.7660446031716 L 624.6528469220202 1277.713764561505 Z"/></g></g><g><g><rect fill="rgb(204,230,204)" stroke="none" x="711.8559850771892" y="1368.0390617831715" width="174.97902401941406" height="31.03688627"/></g><text fill="black" stroke="none" font-family="sans-serif" font-size="11pt" font-style="normal" font-weight="normal" text-decoration="normal" x="715.4371642621892" y="1389.5261368931715" text-anchor="start" dominant-baseline="alphabetic" xml:space="preserve">Nova Reserva de Hotel</text></g><g><path fill="none" stroke="green" paint-order="fill stroke markers" d=" M 604.7574070053536 1378.7065594270261 L 974.6015575300447 1446.7722962867695" stroke-miterlimit="10" stroke-width="1.9895439916666666" stroke-dasharray=""/><g transform="translate(993.9335871684389,1450.330143127026) rotate(10.427968259149297,0,0) translate(-993.9335871684389,-1450.330143127026)"><path fill="green" stroke="none" paint-order="stroke fill markers" d=" M 974.0381472517722 1440.3824231686926 L 993.9335871684389 1450.330143127026 L 974.0381472517722 1460.2778630853595 Z"/><g transform="rotate(-10.427968259149297,0,0)"/></g></g><g><g><rect fill="rgb(204,230,204)" stroke="none" x="661.4839301611413" y="1486.141934977026" width="142.42902096765624" height="31.03688627"/></g><text fill="black" stroke="none" font-family="sans-serif" font-size="11pt" font-style="normal" font-weight="normal" text-decoration="normal" x="665.0651093461413" y="1507.629010087026" text-anchor="start" dominant-baseline="alphabetic" xml:space="preserve">BookedHotelEvent</text></g><g><path fill="none" stroke="green" paint-order="fill stroke markers" d=" M 604.7574070053536 1500.2981784873032 L 841.7103353096595 1566.6233339537214" stroke-miterlimit="10" stroke-width="1.9895439916666666" stroke-dasharray=""/><g transform="translate(860.6394742845854,1571.921762187303) rotate(15.6373886662075,0,0) translate(-860.6394742845854,-1571.921762187303)"><path fill="green" stroke="none" paint-order="stroke fill markers" d=" M 840.7440343679187 1561.9740422289697 L 860.6394742845854 1571.921762187303 L 840.7440343679187 1581.8694821456365 Z"/><g transform="rotate(-15.6373886662075,0,0)"/></g></g><g><g><rect fill="rgb(244,214,204)" stroke="none" x="633.0089316870202" y="1708.006571217303" width="199.37901791589843" height="31.03688627"/></g><text fill="black" stroke="none" font-family="sans-serif" font-size="11pt" font-style="normal" font-weight="normal" text-decoration="normal" x="636.5901108720202" y="1729.493646327303" text-anchor="start" dominant-baseline="alphabetic" xml:space="preserve">DeniedHotelBookingEvent</text></g><g><path fill="none" stroke="red" paint-order="fill stroke markers" d=" M 604.7574070053536 1730.1332108489426 L 841.7103353096595 1796.4583663153608" stroke-miterlimit="10" stroke-width="1.9895439916666666" stroke-dasharray=""/><g transform="translate(860.6394742845854,1801.7567945489425) rotate(15.6373886662075,0,0) translate(-860.6394742845854,-1801.7567945489425)"><path fill="red" stroke="none" paint-order="stroke fill markers" d=" M 840.7440343679187 1791.809074590609 L 860.6394742845854 1801.7567945489425 L 840.7440343679187 1811.704514507276 Z"/><g transform="rotate(-15.6373886662075,0,0)"/></g></g><g><g><rect fill="rgb(244,214,204)" stroke="none" x="555.630078227808" y="1837.5685863989424" width="199.37901791589843" height="31.03688627"/></g><text fill="black" stroke="none" font-family="sans-serif" font-size="11pt" font-style="normal" font-weight="normal" text-decoration="normal" x="559.211257412808" y="1859.0556615089424" text-anchor="start" dominant-baseline="alphabetic" xml:space="preserve">DeniedHotelBookingEvent</text></g><g><path fill="none" stroke="red" paint-order="fill stroke markers" d=" M 860.6394742845854 1868.6054726689424 L 469.65639472459577 1868.6054726689424" stroke-miterlimit="10" stroke-width="1.9895439916666666" stroke-dasharray="9.54981116"/><g transform="translate(449.9997000869291,1868.6054726689424) translate(-449.9997000869291,-1868.6054726689424)"><path fill="red" stroke="none" paint-order="stroke fill markers" d=" M 469.89514000359577 1858.657752710609 L 449.9997000869291 1868.6054726689424 L 469.89514000359577 1878.5531926272758 Z"/></g></g><g><g><rect fill="rgb(204,230,204)" stroke="none" x="514.2556167742524" y="2004.6902816989423" width="142.42902096765624" height="31.03688627"/></g><text fill="black" stroke="none" font-family="sans-serif" font-size="11pt" font-style="normal" font-weight="normal" text-decoration="normal" x="517.8367959592524" y="2026.1773568089422" text-anchor="start" dominant-baseline="alphabetic" xml:space="preserve">BookedHotelEvent</text></g><g><path fill="none" stroke="green" paint-order="fill stroke markers" d=" M 860.6394742845854 2035.7271679689422 L 329.9574748692422 2035.7271679689422" stroke-miterlimit="10" stroke-width="1.9895439916666666" stroke-dasharray="9.54981116"/><g transform="translate(310.3007802315756,2035.7271679689422) translate(-310.3007802315756,-2035.7271679689422)"><path fill="green" stroke="none" paint-order="stroke fill markers" d=" M 330.1962201482422 2025.7794480106088 L 310.3007802315756 2035.7271679689422 L 330.1962201482422 2045.6748879272757 Z"/></g></g><g><g><rect fill="rgb(204,230,204)" stroke="none" x="549.2776732161791" y="2071.538959818942" width="205.67902096765624" height="31.03688627"/></g><text fill="black" stroke="none" font-family="sans-serif" font-size="11pt" font-style="normal" font-weight="normal" text-decoration="normal" x="552.8588524011791" y="2093.026034928942" text-anchor="start" dominant-baseline="alphabetic" xml:space="preserve">Atualiza Reserva (Finished)</text></g><g><path fill="none" stroke="green" paint-order="fill stroke markers" d=" M 310.3007802315756 2102.5758460889424 L 974.2768925307722 2102.5758460889424" stroke-miterlimit="10" stroke-width="1.9895439916666666" stroke-dasharray=""/><g transform="translate(993.9335871684389,2102.5758460889424) translate(-993.9335871684389,-2102.5758460889424)"><path fill="green" stroke="none" paint-order="stroke fill markers" d=" M 974.0381472517722 2092.628126130609 L 993.9335871684389 2102.5758460889424 L 974.0381472517722 2112.523566047276 Z"/></g></g><g><g><rect fill="rgb(204,230,204)" stroke="none" x="185.995232674904" y="2138.387637938942" width="45.74569043176758" height="31.03688627"/></g><text fill="black" stroke="none" font-family="sans-serif" font-size="11pt" font-style="normal" font-weight="normal" text-decoration="normal" x="189.576411859904" y="2159.874713048942" text-anchor="start" dominant-baseline="alphabetic" xml:space="preserve">Avisa</text></g><g><path fill="none" stroke="green" paint-order="fill stroke markers" d=" M 310.3007802315756 2169.4245242089423 L 110.4196915375 2169.4245242089423" stroke-miterlimit="10" stroke-width="1.9895439916666666" stroke-dasharray="9.54981116"/><g transform="translate(107.43537555,2169.4245242089423) translate(-107.43537555,-2169.4245242089423)"><path fill="none" stroke="green" paint-order="fill stroke markers" d=" M 127.8899634944636 2160.299558653031 L 109.67196766118771 2169.4245242089423 L 127.8899634944636 2178.5494897648537" stroke-miterlimit="10" stroke-width="1.9895439916666666"/></g></g><g><g><rect fill="rgb(244,214,204)" stroke="none" x="553.3110060408861" y="2305.5093332389424" width="197.61235531824218" height="31.03688627"/></g><text fill="black" stroke="none" font-family="sans-serif" font-size="11pt" font-style="normal" font-weight="normal" text-decoration="normal" x="556.8921852258861" y="2326.996408348942" text-anchor="start" dominant-baseline="alphabetic" xml:space="preserve">Atualiza Reserva (Denied)</text></g><g><path fill="none" stroke="red" paint-order="fill stroke markers" d=" M 310.3007802315756 2336.5462195089426 L 974.2768925307722 2336.5462195089426" stroke-miterlimit="10" stroke-width="1.9895439916666666" stroke-dasharray=""/><g transform="translate(993.9335871684389,2336.5462195089426) translate(-993.9335871684389,-2336.5462195089426)"><path fill="red" stroke="none" paint-order="stroke fill markers" d=" M 974.0381472517722 2326.598499550609 L 993.9335871684389 2336.5462195089426 L 974.0381472517722 2346.493939467276 Z"/></g></g><g><g><rect fill="rgb(244,214,204)" stroke="none" x="185.995232674904" y="2372.3580113589423" width="45.74569043176758" height="31.03688627"/></g><text fill="black" stroke="none" font-family="sans-serif" font-size="11pt" font-style="normal" font-weight="normal" text-decoration="normal" x="189.576411859904" y="2393.845086468942" text-anchor="start" dominant-baseline="alphabetic" xml:space="preserve">Avisa</text></g><g><path fill="none" stroke="red" paint-order="fill stroke markers" d=" M 310.3007802315756 2403.3948976289425 L 110.4196915375 2403.3948976289425" stroke-miterlimit="10" stroke-width="1.9895439916666666" stroke-dasharray="9.54981116"/><g transform="translate(107.43537555,2403.3948976289425) translate(-107.43537555,-2403.3948976289425)"><path fill="none" stroke="red" paint-order="fill stroke markers" d=" M 127.8899634944636 2394.269932073031 L 109.67196766118771 2403.3948976289425 L 127.8899634944636 2412.519863184854" stroke-miterlimit="10" stroke-width="1.9895439916666666"/></g></g><g><g/><path fill="none" stroke="black" paint-order="fill stroke markers" d=" M 366.4388524369291 622.172283036969 L 1077.4944348184388 622.172283036969 L 1077.4944348184388 914.1903466156368 L 366.4388524369291 914.1903466156368 L 366.4388524369291 622.172283036969 Z" stroke-miterlimit="10" stroke-width="3.410646842857143" stroke-dasharray=""/><path fill="#008000" stroke="black" paint-order="fill stroke markers" d=" M 366.4388524369291 622.172283036969 L 366.4388524369291 650.821716516969 L 510.7045784639799 650.821716516969 L 525.0292952039799 636.496999776969 L 525.0292952039799 622.172283036969 L 366.4388524369291 622.172283036969" stroke-miterlimit="10" stroke-width="3.410646842857143" stroke-dasharray=""/><text fill="white" stroke="none" font-family="sans-serif" font-size="8.8pt" font-style="normal" font-weight="bold" text-decoration="normal" x="390.3133803369291" y="641.271905356969" text-anchor="start" dominant-baseline="alphabetic" xml:space="preserve">Vôo disponível</text></g><g><g/><path fill="none" stroke="black" paint-order="fill stroke markers" d=" M 226.73993258157557 950.0021384656368 L 944.2003219345854 950.0021384656368 L 944.2003219345854 1200.9173664831717 L 226.73993258157557 1200.9173664831717 L 226.73993258157557 950.0021384656368 Z" stroke-miterlimit="10" stroke-width="3.410646842857143" stroke-dasharray=""/><path fill="#c83200" stroke="black" paint-order="fill stroke markers" d=" M 226.73993258157557 950.0021384656368 L 226.73993258157557 978.6515719456368 L 337.98898838157555 978.6515719456368 L 352.31370512157554 964.3268552056368 L 352.31370512157554 950.0021384656368 L 226.73993258157557 950.0021384656368" stroke-miterlimit="10" stroke-width="3.410646842857143" stroke-dasharray=""/><text fill="white" stroke="none" font-family="sans-serif" font-size="8.8pt" font-style="normal" font-weight="bold" text-decoration="normal" x="250.61446048157558" y="969.1017607856368" text-anchor="start" dominant-baseline="alphabetic" xml:space="preserve">Sem vôos</text></g><g><g/><path fill="none" stroke="black" paint-order="fill stroke markers" d=" M 521.1965593553535 1303.5778364531716 L 1077.4944348184388 1303.5778364531716 L 1077.4944348184388 1607.733554037303 L 521.1965593553535 1607.733554037303 L 521.1965593553535 1303.5778364531716 Z" stroke-miterlimit="10" stroke-width="3.410646842857143" stroke-dasharray=""/><path fill="#008000" stroke="black" paint-order="fill stroke markers" d=" M 521.1965593553535 1303.5778364531716 L 521.1965593553535 1332.2272699331716 L 676.3789495059394 1332.2272699331716 L 690.7036662459394 1317.9025531931716 L 690.7036662459394 1303.5778364531716 L 521.1965593553535 1303.5778364531716" stroke-miterlimit="10" stroke-width="3.410646842857143" stroke-dasharray=""/><text fill="white" stroke="none" font-family="sans-serif" font-size="8.8pt" font-style="normal" font-weight="bold" text-decoration="normal" x="545.0710872553535" y="1322.6774587731716" text-anchor="start" dominant-baseline="alphabetic" xml:space="preserve">Hotel disponível</text></g><g><g/><path fill="none" stroke="black" paint-order="fill stroke markers" d=" M 366.4388524369291 1643.545345887303 L 944.2003219345854 1643.545345887303 L 944.2003219345854 1904.4172645189424 L 366.4388524369291 1904.4172645189424 L 366.4388524369291 1643.545345887303 Z" stroke-miterlimit="10" stroke-width="3.410646842857143" stroke-dasharray=""/><path fill="#c83200" stroke="black" paint-order="fill stroke markers" d=" M 366.4388524369291 1643.545345887303 L 366.4388524369291 1672.194779367303 L 487.9212380098783 1672.194779367303 L 502.2459547498783 1657.870062627303 L 502.2459547498783 1643.545345887303 L 366.4388524369291 1643.545345887303" stroke-miterlimit="10" stroke-width="3.410646842857143" stroke-dasharray=""/><text fill="white" stroke="none" font-family="sans-serif" font-size="8.8pt" font-style="normal" font-weight="bold" text-decoration="normal" x="390.3133803369291" y="1662.644968207303" text-anchor="start" dominant-baseline="alphabetic" xml:space="preserve">Sem hotéis</text></g><g><g/><path fill="none" stroke="black" paint-order="fill stroke markers" d=" M 23.874527900000004 1940.2290563689423 L 1077.4944348184388 1940.2290563689423 L 1077.4944348184388 2205.2363160589425 L 23.874527900000004 2205.2363160589425 L 23.874527900000004 1940.2290563689423 Z" stroke-miterlimit="10" stroke-width="3.410646842857143" stroke-dasharray=""/><path fill="#008000" stroke="black" paint-order="fill stroke markers" d=" M 23.874527900000004 1940.2290563689423 L 23.874527900000004 1968.8784898489423 L 177.70691957646486 1968.8784898489423 L 192.03163631646487 1954.5537731089423 L 192.03163631646487 1940.2290563689423 L 23.874527900000004 1940.2290563689423" stroke-miterlimit="10" stroke-width="3.410646842857143" stroke-dasharray=""/><text fill="white" stroke="none" font-family="sans-serif" font-size="8.8pt" font-style="normal" font-weight="bold" text-decoration="normal" x="47.74905580000001" y="1959.3286786889423" text-anchor="start" dominant-baseline="alphabetic" xml:space="preserve">Hotel reservado</text></g><g><g/><path fill="none" stroke="black" paint-order="fill stroke markers" d=" M 23.874527900000004 2241.0481079089427 L 1077.4944348184388 2241.0481079089427 L 1077.4944348184388 2439.2066894789427 L 23.874527900000004 2439.2066894789427 L 23.874527900000004 2241.0481079089427 Z" stroke-miterlimit="10" stroke-width="3.410646842857143" stroke-dasharray=""/><path fill="#c83200" stroke="black" paint-order="fill stroke markers" d=" M 23.874527900000004 2241.0481079089427 L 23.874527900000004 2269.6975413889427 L 226.7402524011719 2269.6975413889427 L 241.0649691411719 2255.3728246489427 L 241.0649691411719 2241.0481079089427 L 23.874527900000004 2241.0481079089427" stroke-miterlimit="10" stroke-width="3.410646842857143" stroke-dasharray=""/><text fill="white" stroke="none" font-family="sans-serif" font-size="8.8pt" font-style="normal" font-weight="bold" text-decoration="normal" x="47.74905580000001" y="2260.1477302289427" text-anchor="start" dominant-baseline="alphabetic" xml:space="preserve">Erro no vôo ou no hotel</text></g></g><g/><g/><g/><g/><g/><g/></g></svg>